<svg width="62" height="64" viewBox="0 0 62 64" fill="none" xmlns="http://www.w3.org/2000/svg">
<path d="M41.4805 0C42.3123 3.57944e-05 42.9842 0.0961204 43.4961 0.288086C44.0079 0.416059 44.2635 0.671878 44.2637 1.05566C44.2637 1.50364 44.0081 1.88802 43.4961 2.20801C42.9841 2.52801 42.1837 2.78359 41.0957 2.97559C38.7279 3.42357 37.0001 4.12797 35.9121 5.08789C34.8242 6.04785 34.2803 7.64785 34.2803 9.8877V13.2881C34.2803 13.8404 34.728 14.2881 35.2803 14.2881H40.0732C42.441 14.2241 44.6168 14.1924 46.6006 14.1924C48.2484 14.1439 49.6946 14.1134 50.9388 14.1014C51.5281 14.0958 51.9973 13.5862 51.8776 13.0092C51.6907 12.1087 51.3852 11.4005 50.96 10.8848C50.2507 9.96317 48.9331 9.2875 47.0078 8.85742C45.3359 8.48878 44.5 7.87383 44.5 7.01367C44.5 6.64508 44.7031 6.39924 45.1084 6.27637C45.5137 6.09216 46.0457 6 46.7041 6C48.072 6 49.1866 6.03036 50.0479 6.0918C50.9598 6.15324 51.8212 6.21493 52.6318 6.27637H54.0127C56.2452 6.27683 56.59 10.8076 56.5956 15.3763C56.5957 15.4352 56.6009 15.494 56.6113 15.552L57.4492 20.2402C57.7692 21.9681 57.9287 23.472 57.9287 24.752C57.9287 25.3279 57.7692 25.7123 57.4492 25.9043C57.1932 26.0963 56.905 26.1924 56.585 26.1924C56.3217 26.1924 56.1235 26.1488 55.9902 26.062C55.9349 26.0261 55.8942 25.9727 55.8598 25.9164C55.7497 25.7359 55.6395 25.5078 55.5293 25.2324C55.2093 24.1445 54.8893 23.1201 54.5693 22.1602C54.2494 21.1362 53.865 20.4002 53.417 19.9521C52.5211 18.9282 51.5293 18.2556 50.4414 17.9355C49.3535 17.5516 48.2012 17.3604 46.9854 17.3604H38.4092C37.8972 17.3604 37.1928 17.6477 36.2969 18.2236C35.401 18.7996 34.9532 19.5358 34.9531 20.4316V34.7842C34.9532 35.3311 35.097 35.8207 35.3855 36.2522C35.4162 36.298 35.4519 36.3403 35.4921 36.378C35.8594 36.7235 36.2558 36.8964 36.6807 36.8965H42.1846C44.0406 36.8965 45.3214 36.5755 46.0254 35.9355C46.7291 35.2315 47.305 33.9838 47.7529 32.1924C48.1369 30.7847 48.7127 30.0804 49.4805 30.0801C49.7365 30.0801 49.993 30.2079 50.249 30.4639C50.569 30.7199 50.7285 31.1042 50.7285 31.6162C50.7285 31.8723 50.6968 32.4481 50.6328 33.3438C50.6328 34.2397 50.6011 35.168 50.5371 36.1279C50.4731 37.0879 50.4414 37.8239 50.4414 38.3359V40.9277C50.5054 41.9517 50.5371 42.9443 50.5371 43.9043C50.6011 44.8635 50.6328 45.4713 50.6328 45.7275C50.6328 46.136 50.58 46.4918 50.4736 46.794C50.4534 46.8516 50.4373 46.9107 50.4182 46.9686C50.3322 47.2295 50.1153 47.3604 49.7686 47.3604C48.8087 47.3601 48.0725 46.3358 47.5605 44.2881C47.1766 42.8164 46.6652 41.7284 46.0254 41.0244C45.3854 40.3204 44.4245 39.9678 43.1445 39.9678H38.2168C37.1289 39.9678 36.2967 40.1283 35.7207 40.4482C35.2089 40.7043 34.9531 41.3762 34.9531 42.4639V52.8965C34.9532 55.3282 35.4653 57.0244 36.4893 57.9844C37.5133 58.8802 39.1133 59.3281 41.2891 59.3281H44.3926C46.4403 59.3281 48.1365 59.232 49.4805 59.04C50.8884 58.7841 52.1049 58.3362 53.1289 57.6963C54.1529 56.9923 55.0494 56.0641 55.8174 54.9121C56.6494 53.7601 57.5766 52.2236 58.6006 50.3037C58.7926 49.9198 59.0175 49.5997 59.2734 49.3438C59.5293 49.0881 59.817 48.9918 60.1367 49.0557C60.4567 49.1197 60.7133 49.2801 60.9053 49.5361C61.0971 49.7281 61.1934 50.0165 61.1934 50.4004C61.1933 50.9764 61.0328 52.0002 60.7129 53.4717C60.3929 54.8796 59.9768 56.3518 59.4648 57.8877C59.0168 59.4237 58.6008 60.6401 58.2168 61.5361C58.0384 61.9525 57.8597 62.314 57.6813 62.6198C57.6545 62.6657 57.6317 62.7139 57.6078 62.7613C57.4713 63.0324 57.2264 63.1679 56.873 63.168C53.8011 63.168 50.9531 63.1363 48.3291 63.0723C45.7051 63.0083 43.2088 62.9439 40.8408 62.8799C38.6546 62.8208 33.2298 62.7593 30.5967 62.7002C27.9636 62.7593 22.5378 62.8208 20.3516 62.8799C17.9838 62.9439 15.488 63.0083 12.8643 63.0723C10.2403 63.1363 7.39221 63.168 4.32031 63.168C3.96683 63.168 3.72124 63.0326 3.58459 62.7614C3.56064 62.7139 3.53788 62.6657 3.51106 62.6197C3.33261 62.3139 3.15402 61.9525 2.97559 61.5361C2.59159 60.6401 2.17651 59.4237 1.72852 57.8877C1.21653 56.3517 0.800459 54.8796 0.480469 53.4717C0.160573 52.0001 7.20201e-05 50.9764 0 50.4004C0 50.0499 0.0801038 49.7791 0.240114 49.5885C0.270525 49.5523 0.301865 49.5167 0.33215 49.4804C0.518578 49.2568 0.759686 49.1149 1.05566 49.0557C1.37559 48.9917 1.66397 49.0879 1.91992 49.3438C2.17585 49.5997 2.39983 49.9199 2.5918 50.3037C3.6158 52.2237 4.54398 53.7601 5.37598 54.9121C6.14397 56.0641 7.04047 56.9923 8.06445 57.6963C9.08834 58.3361 10.3042 58.7841 11.7119 59.04C13.0559 59.232 14.7519 59.3281 16.7998 59.3281H19.9043C22.0801 59.3281 23.6801 58.8803 24.7041 57.9844C25.728 57.0244 26.2402 55.3282 26.2402 52.8965V42.4639C26.2402 41.3759 25.9837 40.7042 25.4717 40.4482C24.8957 40.1283 24.0635 39.9678 22.9756 39.9678H18.0479C16.7679 39.9678 15.8079 40.3204 15.168 41.0244C14.5281 41.7284 14.0158 42.8163 13.6318 44.2881C13.1198 46.336 12.3838 47.3604 11.4238 47.3604C11.0773 47.3603 10.861 47.2295 10.7751 46.9687C10.7561 46.9107 10.74 46.8516 10.7197 46.794C10.6132 46.4918 10.5596 46.1361 10.5596 45.7275C10.5596 45.4713 10.5923 44.8636 10.6562 43.9043C10.6562 42.9443 10.688 41.9517 10.752 40.9277V38.3359C10.752 37.8239 10.7202 37.0879 10.6562 36.1279C10.5923 35.1679 10.5596 34.2397 10.5596 33.3438C10.4956 32.4482 10.4639 31.8723 10.4639 31.6162C10.4639 31.1042 10.6243 30.7199 10.9443 30.4639C11.2002 30.2081 11.456 30.0801 11.7119 30.0801C12.4799 30.0801 13.0564 30.7844 13.4404 32.1924C13.8884 33.9839 14.4641 35.2316 15.168 35.9355C15.8719 36.5755 17.1519 36.8965 19.0078 36.8965H24.5117C24.9366 36.8965 25.3329 36.7234 25.7003 36.378C25.7404 36.3403 25.7762 36.298 25.8069 36.2522C26.0955 35.8206 26.2402 35.3311 26.2402 34.7842V20.4316C26.2401 19.5359 25.7923 18.7995 24.8965 18.2236C24.0006 17.6477 23.2962 17.3604 22.7842 17.3604H14.208C12.992 17.3604 11.8399 17.5516 10.752 17.9355C9.66398 18.2555 8.67235 18.9282 7.77637 19.9521C7.32837 20.4001 6.94402 21.1362 6.62402 22.1602C6.30404 23.1201 5.98405 24.1445 5.66406 25.2324C5.55387 25.5079 5.44367 25.7359 5.33347 25.9165C5.29916 25.9727 5.25848 26.026 5.20327 26.062C5.06996 26.1487 4.87159 26.1923 4.6084 26.1924C4.28848 26.1924 4.00009 26.0962 3.74414 25.9043C3.42414 25.7123 3.26367 25.328 3.26367 24.752C3.26368 23.472 3.42417 21.9681 3.74414 20.2402L4.59981 15.4448C4.61007 15.3873 4.61526 15.329 4.6154 15.2706C4.62629 10.738 4.98307 6.27699 7.19824 6.27637H8.5791C9.3897 6.21493 10.2512 6.15323 11.1631 6.0918C12.0243 6.03036 13.139 6 14.5068 6C15.1655 6 15.6982 6.09205 16.1035 6.27637C16.5086 6.39928 16.7109 6.64519 16.7109 7.01367C16.7109 7.87383 15.8751 8.48878 14.2031 8.85742C12.2779 9.2875 10.9603 9.96319 10.251 10.8848C9.82575 11.4006 9.51967 12.1088 9.3325 13.0094C9.21261 13.5863 9.68173 14.0959 10.2709 14.1016C11.5112 14.1137 12.9515 14.1441 14.5918 14.1924C16.5758 14.1924 18.7521 14.2241 21.1201 14.2881H25.5996C26.1519 14.2881 26.5996 13.8404 26.5996 13.2881V9.8877C26.5996 7.64787 26.1201 6.04785 25.1602 5.08789C24.2642 4.12789 22.6 3.42359 20.168 2.97559C18.056 2.59158 17 1.95165 17 1.05566C17.0001 0.671956 17.256 0.416086 17.7676 0.288086C18.2796 0.0960846 18.9522 0 19.7842 0C21.512 2.21311e-06 22.9199 0.0317104 24.0078 0.0957031C25.1598 0.159702 26.2485 0.224087 27.2725 0.288086H34.4717C35.3676 0.224096 36.3277 0.159694 37.3516 0.0957031C38.3756 0.0317001 39.7525 0 41.4805 0Z" fill="#F0FFFF"/>
</svg>
