<svg width="65" height="101" viewBox="0 0 65 101" fill="none" xmlns="http://www.w3.org/2000/svg">
<path d="M5.08789 0C5.34389 0 5.72823 0.214028 6.24023 0.641602C6.81606 1.06907 7.23232 1.42496 7.48828 1.70996C7.87228 2.06627 8.73608 2.33356 10.0801 2.51172C11.4881 2.68988 12.864 2.99219 14.208 2.99219H40.4727C40.7807 2.95544 41.1296 2.93654 41.5195 2.93652C42.8346 2.93652 43.9648 2.95512 44.9092 2.99219H48V3.16406C48.3425 3.18464 48.6785 3.20305 49.0078 3.22363H55.3438C55.9837 3.15964 56.7199 3.09622 57.5518 3.03223C58.3837 2.96823 59.6638 2.93653 61.3916 2.93652C62.2876 2.93652 62.9602 3.06431 63.4082 3.32031C63.9198 3.51224 64.1756 3.79988 64.1758 4.18359C64.1758 4.9516 63.1198 5.52811 61.0078 5.91211C58.6402 6.36007 57.2006 7.12804 56.6885 8.21582C56.1765 9.30378 55.9199 10.7759 55.9199 12.6318V56.0244C55.92 58.3922 56.2082 60.0884 56.7842 61.1123C57.4243 62.1362 58.9281 62.8723 61.2959 63.3203C63.3439 63.7043 64.3682 64.2164 64.3682 64.8564C64.368 65.2402 64.1114 65.5278 63.5996 65.7197C63.0876 65.9757 62.4159 66.1045 61.584 66.1045C59.856 66.1045 58.5118 66.0401 57.5518 65.9121C56.5919 65.8481 55.6961 65.7837 54.8643 65.7197C54.0323 65.6557 52.9436 65.624 51.5996 65.624C50.2559 65.624 49.1361 65.6557 48.2402 65.7197C47.4082 65.7837 46.48 65.8481 45.4561 65.9121C44.4321 66.0401 43.0561 66.1045 41.3281 66.1045C40.4961 66.1045 39.8235 65.9757 39.3115 65.7197C38.8001 65.5278 38.5441 65.2401 38.5439 64.8564C38.5439 64.4085 38.768 64.0885 39.2158 63.8965C39.7278 63.7045 40.5282 63.5123 41.6162 63.3203C43.6641 62.9363 45.2641 62.2002 46.416 61.1123C47.6319 59.9604 48.2401 58.3603 48.2402 56.3125V12.6318C48.2402 10.9042 47.7922 9.46437 46.8965 8.3125C46.0936 7.28017 44.6731 6.53145 42.6367 6.06445H12.4805C10.9445 6.06445 9.40807 6.38441 7.87207 7.02441C6.40029 7.60035 5.31239 8.52788 4.6084 9.80762C4.41642 10.1276 4.09637 10.6081 3.64844 11.248C3.20044 11.824 2.72001 12.3362 2.20801 12.7842C1.69604 13.2321 1.18385 13.4561 0.671875 13.4561C0.415968 13.456 0.223683 13.3282 0.0957031 13.0723C0.0317036 12.8163 5.08635e-07 12.528 0 12.208C0 11.568 0.160469 10.9281 0.480469 10.2881C1.37644 8.43213 2.0164 6.79957 2.40039 5.3916C2.84832 3.29593 3.20008 2.3339 3.45605 1.22949C3.58405 0.623765 3.80793 0.267053 4.12793 0.160156C4.51188 0.0532789 4.83191 1.48637e-05 5.08789 0Z" fill="#6A5ACD"/>
<path d="M44.6247 74.184C45.4956 74.8951 45.9131 75.7525 46.3476 76.7563C46.8505 77.918 48.1815 78.398 49.3399 77.8875C51.6641 76.8632 52.5016 73.9173 50.5754 72.2617C49.999 71.7663 49.3991 71.319 48.7759 70.92C46.9309 69.64 45.2256 69 42.8225 69C39.8187 69 38.24 69.576 35.808 70.728C33.376 71.88 31.264 73.416 29.472 75.336C27.744 77.192 26.4 79.24 25.44 81.48C24.48 83.72 24 85.928 24 88.104C24 90.408 24.64 92.488 25.92 94.344C27.264 96.136 28.96 97.576 31.008 98.664C33.12 99.688 35.264 100.2 37.44 100.2C38.656 100.2 39.84 100.008 40.992 99.624C42.144 99.24 43.2 98.792 44.16 98.28C45.12 97.768 45.824 97.352 46.272 97.032C46.784 96.648 47.36 96.168 48 95.592C48.64 94.952 49.12 94.312 49.44 93.672C49.568 93.48 49.536 93.224 49.344 92.904C49.216 92.584 49.024 92.488 48.768 92.616C47.552 93.192 46.464 93.768 45.504 94.344C44.544 94.856 43.072 95.112 41.088 95.112C39.424 95.112 37.824 94.536 36.288 93.384C34.752 92.168 33.504 90.632 32.544 88.776C31.648 86.92 31.2 85.032 31.2 83.112C31.2 81.512 31.552 79.912 32.256 78.312C32.96 76.648 34.016 75.272 35.424 74.184C36.832 73.032 38.56 72.456 40.608 72.456C42.336 72.456 43.2681 73.032 44.6247 74.184Z" fill="#F0FFFF"/>
</svg>
