<svg width="515" height="102" viewBox="0 0 515 102" fill="none" xmlns="http://www.w3.org/2000/svg">
<g clip-path="url(#clip0_161_2)">
<path d="M208.088 23C208.344 23 208.728 23.214 209.24 23.6416C209.816 24.0691 210.232 24.425 210.488 24.71C210.872 25.0663 211.736 25.3336 213.08 25.5117C214.488 25.6899 215.864 25.9922 217.208 25.9922H251V26.1621C256.468 26.6248 260.991 28.0748 264.568 30.5117C269.048 33.5197 271.288 37.712 271.288 43.0879C271.288 46.9917 270.52 50.6077 268.984 53.9355C267.448 57.1995 265.08 59.8236 261.88 61.8076C258.744 63.7916 254.712 64.7842 249.784 64.7842C248.376 64.7842 247.288 64.592 246.52 64.208C245.816 63.7601 245.464 63.3439 245.464 62.96C245.464 62.704 245.624 62.4157 245.944 62.0957C246.328 61.7759 246.68 61.6162 247 61.6162C247.32 61.6162 247.8 61.6479 248.44 61.7119C249.144 61.7759 250.136 61.8076 251.416 61.8076C255.256 61.8076 258.136 60.2078 260.056 57.0078C262.04 53.8078 263.032 49.3918 263.032 43.7598C263.032 38.6399 261.527 34.8636 258.52 32.4316C256.419 30.6886 253.912 29.555 251 29.0293V29.0645H244.012C243.491 29.2143 243.015 29.409 242.584 29.6484C241.432 30.2244 240.857 31.248 240.856 32.7197V78.5117C240.856 80.8157 241.336 82.6721 242.296 84.0801C243.256 85.4881 244.92 86.4163 247.288 86.8643C248.376 87.0563 249.176 87.2801 249.688 87.5361C250.2 87.7921 250.456 88.144 250.456 88.5918C250.456 88.9757 250.2 89.2323 249.688 89.3604C249.176 89.5524 248.504 89.6484 247.672 89.6484C245.944 89.6484 244.6 89.5841 243.64 89.4561C242.744 89.3281 241.911 89.232 241.144 89.168C240.44 89.04 239.479 88.9756 238.264 88.9756C236.664 88.9756 235.224 89.04 233.944 89.168C232.728 89.232 231.48 89.3281 230.2 89.4561C228.984 89.5841 227.512 89.6484 225.784 89.6484C224.952 89.6484 224.28 89.5524 223.768 89.3604C223.256 89.2323 223 88.9757 223 88.5918C223 87.8239 224.056 87.2482 226.168 86.8643C228.6 86.4163 230.36 85.6803 231.448 84.6562C232.6 83.6323 233.176 81.9362 233.176 79.5684V39.0557C233.176 36.1758 232.792 33.9676 232.024 32.4316C231.32 30.8958 229.752 29.9041 227.32 29.4561C226.701 29.3467 226.175 29.2153 225.742 29.0645H215.48C213.944 29.0645 212.408 29.3844 210.872 30.0244C209.4 30.6003 208.312 31.5279 207.608 32.8076C207.416 33.1276 207.096 33.6081 206.648 34.248C206.2 34.824 205.72 35.3362 205.208 35.7842C204.696 36.2321 204.184 36.4561 203.672 36.4561C203.416 36.456 203.224 36.3282 203.096 36.0723C203.032 35.8163 203 35.528 203 35.208C203 34.568 203.16 33.9281 203.48 33.2881C204.376 31.4321 205.016 29.7996 205.4 28.3916C205.848 26.2959 206.2 25.3339 206.456 24.2295C206.584 23.6238 206.808 23.2671 207.128 23.1602C207.512 23.0533 207.832 23 208.088 23Z" fill="#F0FFFF"/>
<path d="M137.8 26C138.632 26 139.304 26.0961 139.816 26.2881C140.328 26.4161 140.584 26.672 140.584 27.0557C140.584 27.8877 139.528 28.5286 137.416 28.9766C135.752 29.2966 134.568 30.0961 133.864 31.376C133.16 32.6559 132.744 34.2559 132.616 36.1758C132.296 41.6797 132.072 46.7041 131.944 51.248C131.88 55.792 131.784 60.2725 131.656 64.6885C131.528 69.6162 130.344 74 128.104 77.8398C125.864 81.6798 122.856 84.6883 119.08 86.8643C115.368 88.9762 111.144 90.0322 106.408 90.0322C100.712 90.0322 95.9435 89.0397 92.1035 87.0557C88.2638 85.0077 85.3838 82.1595 83.4639 78.5117C81.544 74.7999 80.584 70.5121 80.584 65.6484V36.1758C80.5839 33.872 80.1035 32.2085 79.1436 31.1846C78.2476 30.0966 77.256 29.424 76.168 29.168C74.056 28.592 73 27.8877 73 27.0557C73.0002 26.672 73.256 26.4161 73.7676 26.2881C74.2796 26.0961 74.9522 26 75.7842 26C77.256 26 78.6957 26.0644 80.1035 26.1924C81.5755 26.2564 83.208 26.2881 85 26.2881C86.472 26.2881 87.848 26.2564 89.1279 26.1924C90.4718 26.1284 91.6558 26.0957 92.6797 26.0957C93.5117 26.0957 94.1843 26.1918 94.6963 26.3838C95.2082 26.5118 95.4639 26.7684 95.4639 27.1523C95.4638 27.6002 95.208 27.9521 94.6963 28.208C94.1843 28.464 93.3839 28.7523 92.2959 29.0723C91.5279 29.3283 90.664 30.0643 89.7041 31.2803C88.7441 32.4963 88.2637 34.0644 88.2637 35.9844V62.96C88.2637 68.0799 89.1285 72.3038 90.8564 75.6318C92.5844 78.8958 94.9521 81.3277 97.96 82.9277C101.032 84.4637 104.52 85.2324 108.424 85.2324C115.016 85.2324 119.848 82.96 122.92 78.416C125.915 73.9228 127.45 68.0606 127.524 60.8291C127.369 60.575 127.122 60.4483 126.784 60.4482C124.736 60.4482 122.656 60.4799 120.544 60.5439C118.432 60.6719 116.8 60.7363 115.648 60.7363C114.241 60.7363 113.024 61.1198 112 61.8877C110.976 62.6556 110.24 63.584 109.792 64.6719C109.664 64.9278 109.408 65.248 109.024 65.6318C108.641 66.0796 108.32 66.3035 108.064 66.3037C107.808 66.3037 107.52 66.1441 107.2 65.8242C106.88 65.5683 106.753 65.2164 106.816 64.7686C106.88 63.6806 106.944 62.7197 107.008 61.8877C107.072 61.0559 107.104 60.2561 107.104 59.4883C107.104 58.5283 107.072 57.5357 107.008 56.5117C106.944 55.5518 106.88 54.3677 106.816 52.96C106.816 52.5123 106.88 52.1285 107.008 51.8086C107.072 51.4887 107.296 51.3282 107.68 51.3281C108.32 51.3281 108.832 51.6164 109.216 52.1924C109.536 52.7683 109.76 53.2162 109.888 53.5361C110.336 55.0081 111.008 55.9997 111.904 56.5117C112.8 57.0877 113.632 57.376 114.4 57.376H116.896C117.664 57.44 118.432 57.4717 119.2 57.4717H122.368C123.392 57.4717 124.416 57.4083 125.44 57.2803C126.08 57.2162 126.624 56.9923 127.072 56.6084C127.234 56.4929 127.365 56.3433 127.469 56.1611C127.458 55.6972 127.446 55.2115 127.432 54.7041C127.432 52.4002 127.4 49.9364 127.336 47.3125C127.272 44.6245 127.208 42.0638 127.144 39.6318C127.144 37.9679 126.984 36.3997 126.664 34.9277C126.408 33.4561 125.992 32.2084 125.416 31.1846C124.84 30.0966 124.104 29.424 123.208 29.168C122.568 28.976 121.864 28.7204 121.096 28.4004C120.392 28.0804 120.04 27.696 120.04 27.248C120.04 26.8642 120.296 26.6085 120.808 26.4805C121.32 26.2885 121.992 26.1924 122.824 26.1924C124.296 26.1924 125.512 26.2241 126.472 26.2881H132.904C133.8 26.2241 134.664 26.1597 135.496 26.0957C136.328 26.0317 137.096 26 137.8 26Z" fill="#F0FFFF"/>
<path d="M8.08789 23C8.34389 23 8.72823 23.214 9.24023 23.6416C9.81607 24.0691 10.2323 24.425 10.4883 24.71C10.8723 25.0663 11.7361 25.3336 13.0801 25.5117C14.408 25.6797 15.7075 25.9543 16.9785 25.9854C17.2742 25.9524 17.6065 25.9365 17.9756 25.9365C19.2907 25.9365 20.4208 25.9551 21.3652 25.9922H34.6826C35.4785 25.9552 36.5335 25.9365 37.8477 25.9365C38.189 25.9365 38.4981 25.955 38.7744 25.9922H43.4727C43.7807 25.9554 44.1296 25.9365 44.5195 25.9365C45.8346 25.9365 46.9648 25.9551 47.9092 25.9922H51V26.1641C51.3425 26.1846 51.6785 26.2031 52.0078 26.2236H58.3438C58.9837 26.1596 59.7198 26.0962 60.5518 26.0322C61.3837 25.9682 62.6638 25.9365 64.3916 25.9365C65.2876 25.9365 65.9602 26.0643 66.4082 26.3203C66.9198 26.5122 67.1756 26.7999 67.1758 27.1836C67.1758 27.9516 66.1198 28.5281 64.0078 28.9121C61.6399 29.3601 60.1995 30.1278 59.6875 31.2158C59.1755 32.3038 58.9199 33.7759 58.9199 35.6318V79.0244C58.92 81.3922 59.2082 83.0884 59.7842 84.1123C60.4243 85.1362 61.9281 85.8724 64.2959 86.3203C66.3439 86.7043 67.3682 87.2164 67.3682 87.8564C67.368 88.2402 67.1114 88.5278 66.5996 88.7197C66.0876 88.9757 65.4159 89.1045 64.584 89.1045C62.856 89.1045 61.5118 89.0401 60.5518 88.9121C59.5919 88.8481 58.6961 88.7837 57.8643 88.7197C57.0323 88.6557 55.9436 88.624 54.5996 88.624C53.2559 88.624 52.1361 88.6557 51.2402 88.7197C50.4083 88.7837 49.48 88.8481 48.4561 88.9121C47.4321 89.0401 47.056 89.1045 45.3281 89.1045C44.4961 89.1045 43.8235 88.9757 43.3115 88.7197C42.8 88.5278 42.5441 88.2401 42.5439 87.8564C42.5439 87.4085 42.768 87.0885 43.2158 86.8965C43.7278 86.7045 44.5282 86.5123 45.6162 86.3203C47.664 85.9363 48.2641 85.2002 49.416 84.1123C50.6319 82.9604 51.2401 81.3603 51.2402 79.3125V35.6318C51.2402 33.904 50.7914 32.4644 49.8955 31.3125C49.0926 30.2802 47.6731 29.5315 45.6367 29.0645H36.751C34.8049 29.5255 33.6019 30.2417 33.1436 31.2158C32.6316 32.3038 32.376 33.7759 32.376 35.6318V79.0244C32.376 81.3922 32.6643 83.0884 33.2402 84.1123C33.8801 85.1361 34.3842 85.8724 36.752 86.3203C38.7999 86.7043 39.8242 87.2164 39.8242 87.8564C39.824 88.2402 39.5675 88.5278 39.0557 88.7197C38.5437 88.9757 37.8719 89.1045 37.04 89.1045C35.312 89.1045 34.9678 89.0401 34.0078 88.9121C33.048 88.8481 32.1522 88.7837 31.3203 88.7197C30.4883 88.6557 29.3997 88.624 28.0557 88.624C26.712 88.624 25.5922 88.6557 24.6963 88.7197C23.8643 88.7837 22.9361 88.8481 21.9121 88.9121C20.8881 89.0401 19.5121 89.1045 17.7842 89.1045C16.9522 89.1045 16.2796 88.9757 15.7676 88.7197C15.2561 88.5278 15.0002 88.2401 15 87.8564C15 87.4085 15.2241 87.0885 15.6719 86.8965C16.1839 86.7045 16.9843 86.5123 18.0723 86.3203C20.1201 85.9363 21.7201 85.2002 22.8721 84.1123C23.987 83.0561 24.588 81.6229 24.6807 79.8135C24.0023 80.0858 23.296 80.3208 22.5596 80.5117C20.8957 80.9597 19.0718 81.1836 17.0879 81.1836C13.8879 81.1836 10.9755 80.3842 8.35156 78.7842C5.79177 77.1203 3.74394 74.8802 2.20801 72.0645C0.736008 69.1845 0 65.9839 0 62.4639C1.97189e-05 58.3039 0.896496 54.5277 2.68848 51.1357C4.54444 47.744 7.00823 45.0562 10.0801 43.0723C13.152 41.0243 16.5439 40 20.2559 40C21.8072 40 23.2874 40.1563 24.6963 40.4678V35.6318C24.6963 33.904 24.2475 32.4644 23.3516 31.3125C22.5486 30.2802 21.1291 29.5315 19.0928 29.0645H15.4805C13.9445 29.0645 12.4081 29.3844 10.8721 30.0244C9.40029 30.6003 8.31239 31.5279 7.6084 32.8076C7.41642 33.1276 7.09637 33.6081 6.64844 34.248C6.20044 34.824 5.72001 35.3362 5.20801 35.7842C4.69604 36.2321 4.18385 36.4561 3.67188 36.4561C3.41597 36.456 3.22368 36.3282 3.0957 36.0723C3.0317 35.8163 3 35.528 3 35.208C3 34.568 3.16047 33.9281 3.48047 33.2881C4.37644 31.4321 5.0164 29.7996 5.40039 28.3916C5.84832 26.2959 6.20008 25.3339 6.45605 24.2295C6.58405 23.6238 6.80793 23.2671 7.12793 23.1602C7.51188 23.0533 7.83191 23 8.08789 23ZM17.1836 43.5518C14.0478 43.5519 11.4878 45.024 9.50391 47.9678C7.58396 50.8477 6.62408 54.6558 6.62402 59.3916C6.62402 62.3995 7.26402 65.1198 8.54395 67.5518C9.88793 69.9837 11.6482 71.9035 13.8242 73.3115C16.0642 74.7195 18.5279 75.4238 21.2158 75.4238C22.4982 75.4238 23.6583 75.2857 24.6963 75.0107V46.9639C23.7008 46.2793 22.637 45.6217 21.5039 44.9922C19.7759 44.0322 18.3356 43.5518 17.1836 43.5518Z" fill="#F0FFFF"/>
<path d="M229.52 0C231.567 0 233.456 0.512228 235.184 1.53613C236.912 2.56013 238.32 3.93606 239.408 5.66406C240.496 7.32803 241.04 9.18448 241.04 11.2324C241.04 13.2802 240.496 15.2321 239.408 17.0879C238.32 18.9439 236.912 20.4476 235.184 21.5996C233.456 22.7516 231.567 23.3281 229.52 23.3281C227.536 23.328 225.648 22.784 223.856 21.6963C222.128 20.5443 220.72 19.0722 219.632 17.2803C218.544 15.4243 218 13.4718 218 11.4238C218 9.3759 218.544 7.48772 219.632 5.75977C220.72 4.03181 222.128 2.65582 223.856 1.63184C225.648 0.544082 227.536 8.57573e-05 229.52 0ZM251.368 3C252.584 3.00001 253.672 3.16049 254.632 3.48047C255.592 3.80041 256.072 4.31182 256.072 5.01562C256.072 5.39945 255.976 5.71964 255.784 5.97559C255.592 6.23159 255.368 6.58423 255.112 7.03223C254.344 8.12023 253.32 9.49616 252.04 11.1602C250.696 12.7601 249.352 14.3283 248.008 15.8643C246.664 17.4001 245.576 18.5841 244.744 19.416C243.4 20.76 242.408 21.4316 241.768 21.4316C241.256 21.4315 241 21.144 241 20.5684C241 20.3765 241.032 20.1523 241.096 19.8965C241.16 19.5765 241.256 19.2238 241.384 18.8398C241.832 17.6239 242.568 16.0882 243.592 14.2324C244.552 12.3124 245.544 10.4561 246.568 8.66406C247.528 6.87211 248.264 5.55953 248.776 4.72754C249.032 4.21591 249.416 3.80033 249.928 3.48047C250.376 3.16047 250.856 3 251.368 3ZM229.52 4.12793C227.536 4.12805 225.808 4.86405 224.336 6.33594C222.864 7.80792 222.128 9.59995 222.128 11.7119C222.128 13.6959 222.864 15.4562 224.336 16.9922C225.808 18.528 227.536 19.2958 229.52 19.2959C231.568 19.2959 233.296 18.5282 234.704 16.9922C236.176 15.4562 236.912 13.6959 236.912 11.7119C236.912 9.59996 236.176 7.80791 234.704 6.33594C233.296 4.86394 231.568 4.12793 229.52 4.12793Z" fill="#F0FFFF"/>
<path d="M332.088 23C332.344 23 332.728 23.214 333.24 23.6416C333.816 24.0691 334.232 24.425 334.488 24.71C334.872 25.0663 335.736 25.3336 337.08 25.5117C338.488 25.6899 339.864 25.9922 341.208 25.9922H375V26.1621C380.468 26.6248 384.991 28.0748 388.568 30.5117C393.048 33.5197 395.288 37.712 395.288 43.0879C395.288 46.9917 394.52 50.6077 392.984 53.9355C391.448 57.1995 389.08 59.8236 385.88 61.8076C382.744 63.7916 378.712 64.7842 373.784 64.7842C372.376 64.7842 371.288 64.592 370.52 64.208C369.816 63.7601 369.464 63.3439 369.464 62.96C369.464 62.704 369.624 62.4157 369.944 62.0957C370.328 61.7759 370.68 61.6162 371 61.6162C371.32 61.6162 371.8 61.6479 372.44 61.7119C373.144 61.7759 374.136 61.8076 375.416 61.8076C379.256 61.8076 382.136 60.2078 384.056 57.0078C386.04 53.8078 387.032 49.3918 387.032 43.7598C387.032 38.6399 385.527 34.8636 382.52 32.4316C380.419 30.6886 377.912 29.555 375 29.0293V29.0645H368.012C367.491 29.2143 367.015 29.409 366.584 29.6484C365.432 30.2244 364.857 31.248 364.856 32.7197V78.5117C364.856 80.8157 365.336 82.6721 366.296 84.0801C367.256 85.4881 368.92 86.4163 371.288 86.8643C372.376 87.0563 373.176 87.2801 373.688 87.5361C374.2 87.7921 374.456 88.144 374.456 88.5918C374.456 88.9757 374.2 89.2323 373.688 89.3604C373.176 89.5524 372.504 89.6484 371.672 89.6484C369.944 89.6484 368.6 89.5841 367.64 89.4561C366.744 89.3281 365.911 89.232 365.144 89.168C364.44 89.04 363.479 88.9756 362.264 88.9756C360.664 88.9756 359.224 89.04 357.944 89.168C356.728 89.232 355.48 89.3281 354.2 89.4561C352.984 89.5841 351.512 89.6484 349.784 89.6484C348.952 89.6484 348.28 89.5524 347.768 89.3604C347.256 89.2323 347 88.9757 347 88.5918C347 87.8239 348.056 87.2482 350.168 86.8643C352.6 86.4163 354.36 85.6803 355.448 84.6562C356.6 83.6323 357.176 81.9362 357.176 79.5684V39.0557C357.176 36.1758 356.792 33.9676 356.024 32.4316C355.32 30.8958 353.752 29.9041 351.32 29.4561C350.701 29.3467 350.175 29.2153 349.742 29.0645H339.48C337.944 29.0645 336.408 29.3844 334.872 30.0244C333.4 30.6003 332.312 31.5279 331.608 32.8076C331.416 33.1276 331.096 33.6081 330.648 34.248C330.2 34.824 329.72 35.3362 329.208 35.7842C328.696 36.2321 328.184 36.4561 327.672 36.4561C327.416 36.456 327.224 36.3282 327.096 36.0723C327.032 35.8163 327 35.528 327 35.208C327 34.568 327.16 33.9281 327.48 33.2881C328.376 31.4321 329.016 29.7996 329.4 28.3916C329.848 26.2959 330.2 25.3339 330.456 24.2295C330.584 23.6238 330.808 23.2671 331.128 23.1602C331.512 23.0533 331.832 23 332.088 23Z" fill="#F0FFFF"/>
<path d="M353.52 0C355.567 0 357.456 0.512228 359.184 1.53613C360.912 2.56013 362.32 3.93606 363.408 5.66406C364.496 7.32803 365.04 9.18448 365.04 11.2324C365.04 13.2802 364.496 15.2321 363.408 17.0879C362.32 18.9439 360.912 20.4476 359.184 21.5996C357.456 22.7516 355.567 23.3281 353.52 23.3281C351.536 23.328 349.648 22.784 347.856 21.6963C346.128 20.5443 344.72 19.0722 343.632 17.2803C342.544 15.4243 342 13.4718 342 11.4238C342 9.3759 342.544 7.48772 343.632 5.75977C344.72 4.03181 346.128 2.65582 347.856 1.63184C349.648 0.544082 351.536 8.57573e-05 353.52 0ZM375.368 3C376.584 3.00001 377.672 3.16049 378.632 3.48047C379.592 3.80041 380.072 4.31182 380.072 5.01562C380.072 5.39945 379.976 5.71964 379.784 5.97559C379.592 6.23159 379.368 6.58423 379.112 7.03223C378.344 8.12023 377.32 9.49616 376.04 11.1602C374.696 12.7601 373.352 14.3283 372.008 15.8643C370.664 17.4001 369.576 18.5841 368.744 19.416C367.4 20.76 366.408 21.4316 365.768 21.4316C365.256 21.4315 365 21.144 365 20.5684C365 20.3765 365.032 20.1523 365.096 19.8965C365.16 19.5765 365.256 19.2238 365.384 18.8398C365.832 17.6239 366.568 16.0882 367.592 14.2324C368.552 12.3124 369.544 10.4561 370.568 8.66406C371.528 6.87211 372.264 5.55953 372.776 4.72754C373.032 4.21591 373.416 3.80033 373.928 3.48047C374.376 3.16047 374.856 3 375.368 3ZM353.52 4.12793C351.536 4.12805 349.808 4.86405 348.336 6.33594C346.864 7.80792 346.128 9.59995 346.128 11.7119C346.128 13.6959 346.864 15.4562 348.336 16.9922C349.808 18.528 351.536 19.2958 353.52 19.2959C355.568 19.2959 357.296 18.5282 358.704 16.9922C360.176 15.4562 360.912 13.6959 360.912 11.7119C360.912 9.59996 360.176 7.80791 358.704 6.33594C357.296 4.86394 355.568 4.12793 353.52 4.12793Z" fill="#F0FFFF"/>
<path d="M452.088 23C452.344 23 452.728 23.214 453.24 23.6416C453.816 24.0691 454.232 24.425 454.488 24.71C454.872 25.0663 455.736 25.3336 457.08 25.5117C458.488 25.6899 459.864 25.9922 461.208 25.9922H495V26.1621C500.468 26.6248 504.991 28.0748 508.568 30.5117C513.048 33.5197 515.288 37.712 515.288 43.0879C515.288 46.9917 514.52 50.6077 512.984 53.9355C511.448 57.1995 509.08 59.8236 505.88 61.8076C502.744 63.7916 498.712 64.7842 493.784 64.7842C492.376 64.7842 491.288 64.592 490.52 64.208C489.816 63.7601 489.464 63.3439 489.464 62.96C489.464 62.704 489.624 62.4157 489.944 62.0957C490.328 61.7759 490.68 61.6162 491 61.6162C491.32 61.6162 491.8 61.6479 492.44 61.7119C493.144 61.7759 494.136 61.8076 495.416 61.8076C499.256 61.8076 502.136 60.2078 504.056 57.0078C506.04 53.8078 507.032 49.3918 507.032 43.7598C507.032 38.6399 505.527 34.8636 502.52 32.4316C500.419 30.6886 497.912 29.555 495 29.0293V29.0645H488.012C487.491 29.2143 487.015 29.409 486.584 29.6484C485.432 30.2244 484.857 31.248 484.856 32.7197V78.5117C484.856 80.8157 485.336 82.6721 486.296 84.0801C487.256 85.4881 488.92 86.4163 491.288 86.8643C492.376 87.0563 493.176 87.2801 493.688 87.5361C494.2 87.7921 494.456 88.144 494.456 88.5918C494.456 88.9757 494.2 89.2323 493.688 89.3604C493.176 89.5524 492.504 89.6484 491.672 89.6484C489.944 89.6484 488.6 89.5841 487.64 89.4561C486.744 89.3281 485.911 89.232 485.144 89.168C484.44 89.04 483.479 88.9756 482.264 88.9756C480.664 88.9756 479.224 89.04 477.944 89.168C476.728 89.232 475.48 89.3281 474.2 89.4561C472.984 89.5841 471.512 89.6484 469.784 89.6484C468.952 89.6484 468.28 89.5524 467.768 89.3604C467.256 89.2323 467 88.9757 467 88.5918C467 87.8239 468.056 87.2482 470.168 86.8643C472.6 86.4163 474.36 85.6803 475.448 84.6562C476.6 83.6323 477.176 81.9362 477.176 79.5684V39.0557C477.176 36.1758 476.792 33.9676 476.024 32.4316C475.32 30.8958 473.752 29.9041 471.32 29.4561C470.701 29.3467 470.175 29.2153 469.742 29.0645H459.48C457.944 29.0645 456.408 29.3844 454.872 30.0244C453.4 30.6003 452.312 31.5279 451.608 32.8076C451.416 33.1276 451.096 33.6081 450.648 34.248C450.2 34.824 449.72 35.3362 449.208 35.7842C448.696 36.2321 448.184 36.4561 447.672 36.4561C447.416 36.456 447.224 36.3282 447.096 36.0723C447.032 35.8163 447 35.528 447 35.208C447 34.568 447.16 33.9281 447.48 33.2881C448.376 31.4321 449.016 29.7996 449.4 28.3916C449.848 26.2959 450.2 25.3339 450.456 24.2295C450.584 23.6238 450.808 23.2671 451.128 23.1602C451.512 23.0533 451.832 23 452.088 23Z" fill="#F0FFFF"/>
<path d="M473.52 0C475.567 0 477.456 0.512228 479.184 1.53613C480.912 2.56013 482.32 3.93606 483.408 5.66406C484.496 7.32803 485.04 9.18448 485.04 11.2324C485.04 13.2802 484.496 15.2321 483.408 17.0879C482.32 18.9439 480.912 20.4476 479.184 21.5996C477.456 22.7516 475.567 23.3281 473.52 23.3281C471.536 23.328 469.648 22.784 467.856 21.6963C466.128 20.5443 464.72 19.0722 463.632 17.2803C462.544 15.4243 462 13.4718 462 11.4238C462 9.3759 462.544 7.48772 463.632 5.75977C464.72 4.03181 466.128 2.65582 467.856 1.63184C469.648 0.544082 471.536 8.57573e-05 473.52 0ZM495.368 3C496.584 3.00001 497.672 3.16049 498.632 3.48047C499.592 3.80041 500.072 4.31182 500.072 5.01562C500.072 5.39945 499.976 5.71964 499.784 5.97559C499.592 6.23159 499.368 6.58423 499.112 7.03223C498.344 8.12023 497.32 9.49616 496.04 11.1602C494.696 12.7601 493.352 14.3283 492.008 15.8643C490.664 17.4001 489.576 18.5841 488.744 19.416C487.4 20.76 486.408 21.4316 485.768 21.4316C485.256 21.4315 485 21.144 485 20.5684C485 20.3765 485.032 20.1523 485.096 19.8965C485.16 19.5765 485.256 19.2238 485.384 18.8398C485.832 17.6239 486.568 16.0882 487.592 14.2324C488.552 12.3124 489.544 10.4561 490.568 8.66406C491.528 6.87211 492.264 5.55953 492.776 4.72754C493.032 4.21591 493.416 3.80033 493.928 3.48047C494.376 3.16047 494.856 3 495.368 3ZM473.52 4.12793C471.536 4.12805 469.808 4.86405 468.336 6.33594C466.864 7.80792 466.128 9.59995 466.128 11.7119C466.128 13.6959 466.864 15.4562 468.336 16.9922C469.808 18.528 471.536 19.2958 473.52 19.2959C475.568 19.2959 477.296 18.5282 478.704 16.9922C480.176 15.4562 480.912 13.6959 480.912 11.7119C480.912 9.59996 480.176 7.80791 478.704 6.33594C477.296 4.86394 475.568 4.12793 473.52 4.12793Z" fill="#F0FFFF"/>
<path d="M94.3616 99.984C98.2016 101.456 102.266 102.192 106.554 102.192C109.178 102.192 111.866 101.744 114.618 100.848C117.434 99.952 120.026 98.864 122.394 97.584C124.826 96.304 126.778 95.056 128.25 93.84C129.786 92.688 130.554 91.824 130.554 91.248C130.554 90.416 130.106 90 129.21 90C128.954 90 128.666 90.096 128.346 90.288C128.09 90.48 127.802 90.704 127.482 90.96C125.882 92.304 123.93 93.52 121.626 94.608C119.322 95.76 116.922 96.656 114.426 97.296C111.994 98 109.722 98.352 107.61 98.352C103.77 98.352 100.154 97.648 96.7616 96.24C93.3696 94.896 90.3296 92.976 87.6416 90.48C86.5259 89.444 83.1816 91.444 84.1856 93.84C87.1296 96.528 90.5216 98.576 94.3616 99.984Z" fill="#F0FFFF"/>
<path d="M161.16 29C164.424 29 167.24 29.8955 169.608 31.6875C172.04 33.4795 174.056 35.8797 175.656 38.8877C177.256 41.8317 178.44 45.0957 179.208 48.6797C179.582 50.3949 179.865 52.1027 180.057 53.8027V52.2314C180.057 53.2552 180.088 53.9914 180.152 54.4395C180.183 54.5454 180.216 54.6513 180.254 54.7573C180.454 55.3245 181.153 55.4651 181.646 55.1204C182.473 54.5426 183.414 53.9318 184.472 53.2881C186.008 52.3281 187.705 51.496 189.561 50.792C191.416 50.0881 193.336 49.7354 195.32 49.7354C198.456 49.7354 201.048 50.9838 203.096 53.4795C205.208 55.9115 206.264 59.016 206.264 62.792V82.9521C206.264 84.2319 206.68 85.1921 207.512 85.832C208.344 86.408 209.24 86.8558 210.2 87.1758C210.904 87.3678 211.448 87.5917 211.832 87.8477C212.216 88.0397 212.408 88.3279 212.408 88.7119C212.408 89.4158 211.768 89.7676 210.488 89.7676C209.208 89.7676 208.216 89.7042 207.512 89.5762L205.592 89.3838C205.016 89.3198 204.152 89.2881 203 89.2881C201.912 89.2881 201.048 89.3198 200.408 89.3838C199.768 89.4478 199.096 89.5122 198.393 89.5762C197.753 89.7042 196.792 89.7676 195.512 89.7676C194.232 89.7675 193.592 89.4158 193.592 88.7119C193.592 88.2907 193.762 88.0106 194.101 87.8723C194.145 87.8544 194.189 87.837 194.232 87.8163C194.611 87.6314 195.134 87.4179 195.8 87.1758C196.76 86.8558 197.625 86.408 198.393 85.832C199.16 85.1921 199.544 84.2319 199.544 82.9521V63.3682C199.544 61.7682 199.064 60.3278 198.104 59.0479C197.208 57.7039 196.088 56.6479 194.744 55.8799C193.4 55.1119 192.024 54.7275 190.616 54.7275C189.4 54.7275 187.992 54.9198 186.393 55.3037C184.793 55.6237 183.544 56.1359 182.648 56.8398C181.624 57.6718 180.92 58.5357 180.536 59.4316C180.475 59.6042 180.42 59.7972 180.37 60.0102C180.356 60.0741 180.348 60.1395 180.347 60.2051C180.278 63.4473 179.9 66.7416 179.208 70.0879C178.44 73.7998 177.224 77.2234 175.56 80.3594C173.96 83.4952 171.88 86.0234 169.32 87.9434C166.824 89.8633 163.784 90.8242 160.2 90.8242C156.936 90.8242 154.088 89.9277 151.656 88.1357C149.288 86.3438 147.304 83.9761 145.704 81.0322C144.104 78.0242 142.92 74.7276 142.152 71.1436C141.384 67.5598 141 64.0081 141 60.4883C141 56.8404 141.384 53.1601 142.152 49.4482C142.92 45.7362 144.104 42.3435 145.704 39.2715C147.368 36.1996 149.48 33.7358 152.04 31.8799C154.6 29.9599 157.64 29 161.16 29ZM159.336 31.6875C156.776 31.6875 154.728 32.9359 153.192 35.4316C151.72 37.9276 150.632 41.256 149.928 45.416C149.288 49.5119 148.968 53.9599 148.968 58.7598C148.968 62.3438 149.224 65.896 149.736 69.416C150.312 72.9358 151.112 76.1358 152.136 79.0156C153.224 81.8316 154.568 84.104 156.168 85.832C157.768 87.496 159.656 88.3281 161.832 88.3281C164.392 88.3281 166.44 87.0479 167.976 84.4883C169.576 81.8643 170.728 78.4715 171.432 74.3115C172.136 70.1517 172.488 65.6719 172.488 60.8721C172.488 57.2881 172.2 53.7675 171.624 50.3115C171.112 46.8558 170.28 43.7201 169.128 40.9043C168.04 38.0883 166.664 35.8476 165 34.1836C163.4 32.5197 161.512 31.6875 159.336 31.6875Z" fill="#F0FFFF"/>
<path d="M281.088 23C281.344 23 281.728 23.214 282.24 23.6416C282.816 24.0691 283.232 24.425 283.488 24.71C283.872 25.0663 284.736 25.3336 286.08 25.5117C287.488 25.6899 288.864 25.9922 290.208 25.9922H296.929C297.237 25.9554 297.586 25.9365 297.976 25.9365C299.291 25.9365 300.421 25.9551 301.365 25.9922H308V26.2236H311.8C312.44 26.1596 313.176 26.0962 314.008 26.0322C314.84 25.9682 316.12 25.9365 317.848 25.9365C318.744 25.9365 319.416 26.0643 319.864 26.3203C320.376 26.5122 320.632 26.7999 320.632 27.1836C320.632 27.9516 319.576 28.5281 317.464 28.9121C315.096 29.3601 313.656 30.1278 313.144 31.2158C312.632 32.3038 312.376 33.7759 312.376 35.6318V56.6572C312.525 56.7881 312.718 56.8564 312.96 56.8564C315.008 56.8564 317.088 56.8238 319.2 56.7598C321.312 56.6318 322.944 56.5684 324.096 56.5684C325.504 56.5684 326.72 56.184 327.744 55.416C328.768 54.648 329.504 53.7198 329.952 52.6318C330.08 52.3759 330.336 52.0557 330.72 51.6719C331.104 51.2241 331.424 51.0002 331.68 51C331.936 51 332.224 51.1605 332.544 51.4805C332.864 51.7365 332.992 52.0882 332.928 52.5361C332.864 53.6241 332.8 54.5841 332.736 55.416C332.672 56.248 332.64 57.0484 332.64 57.8164C332.64 58.7763 332.672 59.7681 332.736 60.792C332.8 61.7519 332.864 62.9359 332.928 64.3438C332.928 64.7917 332.864 65.1761 332.736 65.4961C332.672 65.8159 332.448 65.9755 332.064 65.9756C331.425 65.9756 330.912 65.6881 330.528 65.1123C330.208 64.5363 329.984 64.0876 329.856 63.7676C329.408 62.2957 328.736 61.304 327.84 60.792C326.944 60.216 326.112 59.9277 325.344 59.9277H322.848C322.08 59.8638 321.312 59.832 320.544 59.832H317.376C316.352 59.832 315.328 59.8964 314.304 60.0244C313.664 60.0885 313.12 60.3124 312.672 60.6963C312.559 60.7773 312.461 60.8755 312.376 60.9893V79.0244C312.376 81.3922 312.664 83.0884 313.24 84.1123C313.88 85.1361 314.384 85.8724 316.752 86.3203C318.8 86.7043 319.824 87.2164 319.824 87.8564C319.824 88.2402 319.567 88.5278 319.056 88.7197C318.544 88.9757 317.872 89.1045 317.04 89.1045C315.312 89.1045 314.968 89.0401 314.008 88.9121C313.048 88.8481 312.152 88.7837 311.32 88.7197C310.488 88.6557 309.4 88.624 308.056 88.624C306.712 88.624 305.592 88.6557 304.696 88.7197C303.864 88.7837 302.936 88.8481 301.912 88.9121C300.888 89.0401 299.512 89.1045 297.784 89.1045C296.952 89.1045 296.28 88.9757 295.768 88.7197C295.256 88.5278 295 88.2401 295 87.8564C295 87.4085 295.224 87.0885 295.672 86.8965C296.184 86.7045 296.984 86.5123 298.072 86.3203C300.12 85.9363 301.72 85.2002 302.872 84.1123C304.088 82.9604 304.696 81.3603 304.696 79.3125V35.6318C304.696 33.904 304.247 32.4644 303.352 31.3125C302.549 30.2802 301.129 29.5315 299.093 29.0645H288.48C286.944 29.0645 285.408 29.3844 283.872 30.0244C282.4 30.6003 281.312 31.5279 280.608 32.8076C280.416 33.1276 280.096 33.6081 279.648 34.248C279.2 34.824 278.72 35.3362 278.208 35.7842C277.696 36.2321 277.184 36.4561 276.672 36.4561C276.416 36.456 276.224 36.3282 276.096 36.0723C276.032 35.8163 276 35.528 276 35.208C276 34.568 276.16 33.9281 276.48 33.2881C277.376 31.4321 278.016 29.7996 278.4 28.3916C278.848 26.2959 279.2 25.3339 279.456 24.2295C279.584 23.6238 279.808 23.2671 280.128 23.1602C280.512 23.0533 280.832 23 281.088 23Z" fill="#F0FFFF"/>
<path d="M421 27.1231C424 27.1231 428.852 26.3901 431.818 28.5011C434.835 30.676 437.24 33.6825 439.029 37.5206C440.819 41.3584 441.765 45.74 441.867 50.6651C441.969 55.0789 442.046 59.557 442.097 64.0987C442.199 68.6404 442.378 73.662 442.634 79.1632C442.736 81.0822 443.068 82.6817 443.631 83.961C443.964 84.7187 444.433 85.3065 445.035 85.7276C446.345 85.1613 447.315 84.5966 447.944 84.0304C449.224 82.9424 450.153 81.9825 450.729 81.1505C451.369 80.2545 452.105 78.9419 452.937 77.214C453.065 76.83 453.32 76.2541 453.704 75.4864C454.152 74.7186 454.6 74.3342 455.048 74.3341C455.432 74.3341 455.72 74.5263 455.912 74.9102C456.104 75.2942 456.2 75.6786 456.2 76.0626C456.2 76.1266 456.168 76.2229 456.104 76.3507V76.5421C455.657 78.2059 455.24 79.7099 454.856 81.0538C454.536 82.3978 454.248 83.6786 453.992 84.8946C453.8 86.1105 453.64 87.3906 453.512 88.7345C453.448 89.1822 453.32 89.5659 453.128 89.8858C453 90.2058 452.68 90.3663 452.168 90.3663C448.968 90.3663 445.896 90.3346 442.952 90.2706C440.008 90.2066 437.16 90.1422 434.408 90.0782C432.339 90.0782 430.327 90.0585 428.372 90.0206C427.614 90.0842 426.919 90.1182 426.288 90.1182C418.992 90.1182 413.136 88.6145 408.72 85.6065C404.24 82.5986 402 78.4062 402 73.0304C402 69.1264 402.768 65.5097 404.304 62.1817C405.84 58.9179 408.208 56.2936 411.408 54.3097C414.544 52.3258 418.576 51.3341 423.504 51.3341C424.912 51.3341 426 51.5264 426.768 51.9102C427.471 52.3582 427.824 52.7743 427.824 53.1583C427.824 53.4142 427.664 53.7017 427.344 54.0216C426.96 54.3415 426.608 54.502 426.288 54.502C425.968 54.502 425.488 54.4703 424.848 54.4063C424.144 54.3424 423.152 54.3097 421.872 54.3097C418.032 54.3097 415.152 55.9105 413.232 59.1104C411.248 62.3104 410.256 66.7266 410.256 72.3585C410.256 77.4779 411.76 81.2537 414.768 83.6856C416.299 84.9561 418.046 85.9026 420.008 86.5265H430.597C430.633 86.5075 430.669 86.4894 430.704 86.4698L430.747 86.5265H433.809C433.846 86.3889 433.854 86.2697 434.125 86.1681C434.841 85.9122 435.429 85.2399 435.89 84.1524C436.35 83.129 436.682 81.8813 436.887 80.4102C437.142 78.9391 437.271 77.3721 437.271 75.7091C437.322 73.2784 437.373 70.7198 437.424 68.0333C437.475 65.4106 437.5 62.9475 437.5 60.6446C437.551 58.3418 437.577 56.4865 437.577 55.0792C437.577 47.5951 436.35 41.5501 433.896 36.9444C432.32 33.9883 426.848 31.5846 421.787 31.3536C417.456 31.5702 412.804 33.5911 411.352 34.4386C409.88 35.2705 408.696 36.2623 407.8 37.4141C406.904 38.5021 406.232 39.4947 405.784 40.3907C405.336 41.2225 404.92 41.6387 404.536 41.6388C404.28 41.6388 403.96 41.4465 403.576 41.0626C403.192 40.6786 403 40.2625 403 39.8145C403 38.9826 403.352 37.8947 404.056 36.5509C404.76 35.1429 405.848 33.7343 407.32 32.3263C408.856 30.9184 410.776 29.7344 413.08 28.7745C415.448 27.8145 417.736 27.1231 421 27.1231Z" fill="#F0FFFF"/>
</g>
<defs>
<clipPath id="clip0_161_2">
<rect width="515" height="102" fill="white"/>
</clipPath>
</defs>
</svg>
