<svg width="71" height="66" viewBox="0 0 71 66" fill="none" xmlns="http://www.w3.org/2000/svg">
<path d="M35.6934 0C39.4773 3.2984e-05 42.8525 1.05514 45.8184 3.16602C48.8353 5.34087 51.2386 8.34762 53.0283 12.1855C54.8181 16.0236 55.7639 20.4056 55.8662 25.3311C55.9685 29.7448 56.0455 34.2229 56.0967 38.7646C56.199 43.3064 56.3781 48.3279 56.6338 53.8291C56.7361 55.7481 57.0684 57.3476 57.6309 58.627C57.9641 59.3847 58.4329 59.9725 59.0352 60.3936C60.3448 59.8273 61.3151 59.2626 61.9443 58.6963C63.2243 57.6083 64.1525 56.6484 64.7285 55.8164C65.3685 54.9204 66.1045 53.6079 66.9365 51.8799C67.0645 51.4959 67.3203 50.92 67.7041 50.1523C68.152 49.3845 68.5999 49.0001 69.0479 49C69.4319 49 69.7201 49.1922 69.9121 49.5762C70.104 49.96 70.2001 50.3437 70.2002 50.7275C70.2002 50.7915 70.1683 50.8879 70.1045 51.0156V51.208C69.6565 52.8719 69.2404 54.3758 68.8564 55.7197C68.5365 57.0636 68.2482 58.3437 67.9922 59.5596C67.8002 60.7756 67.6397 62.0564 67.5117 63.4004C67.4477 63.8482 67.3198 64.2319 67.1279 64.5518C66.9999 64.8718 66.68 65.0322 66.168 65.0322C62.968 65.0322 59.8961 64.9995 56.9521 64.9355C54.0082 64.8715 51.1602 64.8081 48.4082 64.7441C45.7202 64.7441 43.1278 64.7124 40.6318 64.6484C39.933 64.6305 39.2367 64.6154 38.543 64.6025L38.5684 64.6484C36.0724 64.7124 24.48 64.7441 21.792 64.7441C19.04 64.8081 16.192 64.8715 13.248 64.9355C10.3041 64.9995 7.23214 65.0322 4.03223 65.0322C3.52023 65.0322 3.20027 64.8718 3.07227 64.5518C2.88035 64.2319 2.7525 63.8482 2.68848 63.4004C2.56048 62.0564 2.40001 60.7756 2.20801 59.5596C1.95203 58.3437 1.66371 57.0636 1.34375 55.7197C0.959776 54.3758 0.543666 52.8719 0.0957031 51.208V51.0156C0.0318385 50.8878 0 50.7915 0 50.7275C7.75286e-05 50.3437 0.0961942 49.96 0.288086 49.5762C0.480087 49.1922 0.768345 49 1.15234 49C1.60022 49.0002 2.04821 49.3845 2.49609 50.1523C2.87994 50.92 3.13566 51.4959 3.26367 51.8799C4.09567 53.6079 4.83168 54.9204 5.47168 55.8164C6.04769 56.6484 6.97593 57.6083 8.25586 58.6963C8.89586 59.2723 9.88847 59.8479 11.2324 60.4238C11.464 60.5164 11.704 60.597 11.9502 60.6729C12.6565 60.3451 13.3102 59.7282 13.9092 58.8184C14.6761 57.7949 15.0596 56.1318 15.0596 53.8291V24.3721C15.0596 19.5107 15.8264 15.2247 17.3604 11.5146C18.8944 7.86847 21.1965 5.02159 24.2646 2.97461C27.3328 0.991718 31.1424 0 35.6934 0ZM37.3037 4.79785C34.1846 4.7979 32.9545 5.5654 30.5 7.10059C28.0967 8.69973 26.2049 11.1304 24.8242 14.3926C23.4435 17.7189 22.7529 21.9412 22.7529 27.0586V54.0205C22.7529 55.9395 23.1363 57.5073 23.9033 58.7227C24.6704 59.938 25.361 60.6738 25.9746 60.9297C26.2186 61.0195 26.3194 61.1076 26.3506 61.1924H47.8076C47.8456 61.0547 47.854 60.9357 48.125 60.834C48.8409 60.5781 49.4294 59.9058 49.8896 58.8184C50.3498 57.7949 50.6822 56.5473 50.8867 55.0762C51.1424 53.6051 51.2695 52.038 51.2695 50.375C51.3207 47.9442 51.3717 45.3849 51.4229 42.6982C51.474 40.0758 51.5 37.6132 51.5 35.3105C51.5511 33.0077 51.5771 31.1524 51.5771 29.7451C51.5771 22.2609 50.3491 16.216 47.8945 11.6104C46.237 8.50016 42.5707 4.79785 37.3037 4.79785Z" fill="#F0FFFF"/>
</svg>
